<svg width="552" height="130" viewBox="0 0 552 130" fill="none" xmlns="http://www.w3.org/2000/svg">
<rect width="552" height="130" fill="white"/>
<path d="M0.0313453 116.478C-0.210938 113.37 0.952024 110.14 3.496 106.717C4.41668 105.479 5.72501 103.997 7.44523 102.298C8.05094 101.666 8.72933 101.059 9.48041 100.428C10.2073 99.7969 11.0068 99.117 11.8548 98.34L15.3195 95.6691L16.3613 94.7464C17.2093 94.0423 17.9603 93.4353 18.6145 92.8768C19.2687 92.3426 19.8259 91.8327 20.2863 91.3714C22.7576 89.2104 23.9932 87.3408 23.9932 85.7868C23.9932 85.2526 24.1386 84.9856 24.4536 84.9856C24.5989 84.9856 24.7443 85.0098 24.8654 85.0341C24.9866 85.0827 25.1077 85.0827 25.2773 85.0827C25.5923 85.1555 25.8588 85.3983 26.0769 85.7868C26.4645 86.1753 26.7795 86.6366 26.9975 87.1708C27.2398 87.875 27.3367 88.6762 27.3367 89.5989C27.4821 92.3184 26.2222 94.9407 23.5086 97.4902C22.9756 97.9515 22.3941 98.4614 21.7642 98.9956C21.1343 99.5298 20.4074 100.088 19.5594 100.622L10.0619 106.668C9.2139 107.275 8.46282 107.858 7.80865 108.344C7.15449 108.854 6.54878 109.339 6.01575 109.801C3.42332 112.253 2.18767 114.681 2.35727 117.158C2.50264 121.018 5.55542 122.961 11.5156 122.961C22.6364 122.961 32.7881 120.047 41.9949 114.244C46.6952 111.306 50.2568 107.931 52.6554 104.143C55.4416 99.9668 56.7015 95.4749 56.4835 90.6673C56.3381 88.1906 54.7875 84.5971 51.8558 79.8623L47.6886 73.355C46.7679 71.8739 45.9441 70.5627 45.2657 69.3973C44.5631 68.2318 43.9089 67.1634 43.3032 66.1436L42.3826 64.6382C40.6139 61.3117 39.2086 58.2524 38.2153 55.4601C36.9796 51.9879 36.3255 48.6857 36.2528 45.602C36.0105 40.6487 36.7131 36.2054 38.3364 32.2961C39.9597 28.3869 42.116 25.0605 44.8296 22.3167C47.5432 19.573 50.5717 17.3877 53.9153 15.7609C57.283 14.1341 60.6023 13.0657 63.8731 12.5558C67.144 12.0459 70.1967 12.1431 72.9588 12.7986C75.745 13.4542 77.8771 14.6683 79.3793 16.465C80.8815 18.2375 81.5114 20.6171 81.2933 23.555C81.051 26.493 79.6216 30.0137 77.0049 34.1172C79.1612 31.9562 81.1722 29.7467 83.0378 27.4885C84.9034 25.2547 86.3328 22.948 87.3747 20.6413C88.4165 18.3104 88.8768 15.9551 88.7557 13.5513C88.6345 11.1475 87.7381 8.64661 86.0421 6C89.6764 8.33096 92.1234 10.6134 93.4075 12.8472C94.6916 15.1053 95.1277 17.2906 94.7401 19.4759C94.3524 21.6369 93.2864 23.7979 91.5662 25.9103C89.8217 28.047 87.7623 30.1594 85.3637 32.2961C82.9651 34.4329 80.4211 36.5696 77.7075 38.7306C74.994 40.8916 72.45 43.0768 70.0514 45.2864C67.6528 47.4959 65.5933 49.7541 63.8489 52.085C62.1045 54.416 61.0384 56.7712 60.6508 59.175C60.7234 55.7757 61.741 52.5706 63.6551 49.5841C65.5933 46.5976 67.895 43.6353 70.6086 40.6973C72.5469 37.128 73.5887 33.9472 73.7341 31.1064C73.8794 28.2898 73.4676 25.886 72.45 23.9193C71.4566 21.9525 69.9787 20.3985 68.0404 19.2816C66.1021 18.1647 63.9943 17.5334 61.7168 17.412C59.4393 17.2906 57.1134 17.7034 54.7633 18.626C52.4131 19.6458 50.3295 21.1512 48.4639 23.288C46.5983 25.4247 45.1204 28.1927 44.0059 31.592C42.8913 34.9913 42.431 39.0705 42.6733 43.781C42.8187 45.5535 43.0367 47.3017 43.3032 49.0014C43.5697 50.701 44.0059 52.4007 44.6358 54.1003C45.0961 55.4843 45.6776 56.9169 46.3802 58.398C47.0829 59.8792 47.8582 61.3846 48.7062 62.9386L49.6268 64.444L57.8645 76.9729C60.7234 81.6834 62.1771 85.714 62.2741 89.0404C62.589 94.6979 60.7719 99.9183 56.8227 104.726C53.6487 108.975 48.9727 112.69 42.7944 115.871C40.2505 117.182 37.5611 118.396 34.7506 119.464C31.9401 120.557 29.0085 121.48 26.0042 122.257C20.6012 123.738 15.9252 124.466 11.9759 124.466C4.24708 124.49 0.273629 121.82 0.0313453 116.478Z" fill="black"/>
<path d="M73.7342 80.4693C73.0315 82.1689 72.4501 83.8929 71.9897 85.6411C71.5294 87.3893 71.4809 88.9919 71.8686 90.4487C73.6373 89.2104 75.7209 87.7293 78.1195 85.981C80.5181 84.2328 82.9409 82.436 85.4122 80.5907C87.8835 78.7211 90.2337 76.8757 92.4869 75.0061C94.7159 73.1365 96.5815 71.4125 98.0595 69.7857L98.1806 69.5429H98.4229C98.4956 69.6158 98.6167 69.6643 98.7621 69.6643H99.0044L99.707 69.7857L99.2466 70.2471C97.7687 71.8739 95.9031 73.6464 93.6257 75.5403C91.3482 77.4342 88.9254 79.3524 86.3814 81.2948C83.8374 83.2373 81.3419 85.0826 78.919 86.8794C76.4962 88.6519 74.3883 90.1816 72.5954 91.4199L72.3532 91.6628C70.8025 91.0557 69.8334 89.9388 69.4457 88.3606C69.0581 86.7823 68.937 85.2041 69.1066 83.6501C69.4215 80.9306 70.1968 77.9926 71.4809 74.8361C72.7408 71.6068 74.3883 68.6931 76.4477 66.0222C78.4829 63.3513 80.8815 61.166 83.6193 59.4664C86.3572 57.7667 89.313 56.9897 92.4869 57.1354C94.4252 57.2083 95.8062 57.6696 96.6542 58.5194C97.2599 59.1507 97.6233 59.6849 97.696 60.1462V60.2676L97.5749 60.389L97.8172 60.6319L97.478 60.9718L73.7342 80.4693ZM84.1524 64.6868C82.5291 66.3136 80.9785 68.1589 79.5248 70.1985C78.0468 72.2624 76.7869 74.3505 75.6967 76.5358L74.776 78.284L96.4362 60.5105C96.1212 60.122 95.5639 59.8792 94.7644 59.7577C93.9649 59.6363 92.9957 59.7092 91.9297 60.0006C90.8394 60.2676 89.628 60.8018 88.2712 61.5788C86.9144 62.3315 85.5334 63.3756 84.1524 64.6868Z" fill="black"/>
<path d="M120.059 81.2949C119.526 81.7562 118.678 82.5332 117.515 83.6259C116.352 84.7185 115.092 85.8111 113.759 86.928C112.403 88.045 111.143 89.0648 109.931 89.9389C108.744 90.8373 107.872 91.3472 107.315 91.5171C105.691 89.5747 104.892 87.5593 104.892 85.4226C104.892 83.2859 105.376 81.1735 106.346 79.0368C107.315 76.9001 108.575 74.8362 110.101 72.8209C111.652 70.8056 113.154 68.8874 114.607 67.0663C116.085 65.2453 117.321 63.5942 118.314 62.1373C119.308 60.6562 119.792 59.4179 119.695 58.4224C119.695 58.2767 119.647 58.1553 119.574 58.0824C117.878 59.3207 115.988 60.8019 113.905 62.5501C111.821 64.2983 109.738 66.0465 107.654 67.8433C105.643 69.6158 103.705 71.4126 101.863 73.2337C99.9977 75.0547 98.3502 76.7301 96.8722 78.2841C95.3216 80.2994 94.1344 82.3633 93.2864 84.5C92.4384 86.6367 92.3173 88.9676 92.9472 91.5171C91.1786 89.3561 90.3063 87.1951 90.3306 85.0827C90.379 82.946 90.9121 80.8336 91.9539 78.6968C92.9957 76.5601 94.3525 74.5205 96 72.5538C97.6718 70.587 99.2224 68.6689 100.7 66.7992C102.178 64.9296 103.341 63.2057 104.238 61.5789C105.134 59.952 105.304 58.4466 104.771 57.0384C105.086 56.9655 105.376 56.9898 105.691 57.1598C106.006 57.3054 106.224 57.4754 106.394 57.6211C106.854 58.0824 107.097 58.6166 107.097 59.2479C107.339 61.3361 107.072 63.2785 106.346 65.051C105.619 66.8235 104.577 68.5717 103.269 70.2714C103.874 69.8101 104.456 69.3244 104.94 68.8146C105.449 68.3047 106.006 67.7948 106.612 67.2363C108.841 65.221 111.022 63.3514 113.154 61.6031C115.286 59.8549 117.103 58.4224 118.654 57.2569C119.041 57.0141 119.429 56.9655 119.817 57.0869C120.204 57.2083 120.543 57.3783 120.858 57.6211C121.246 58.1553 121.44 58.7137 121.44 59.2479C121.682 61.2632 121.44 63.1328 120.737 64.8811C120.035 66.6293 119.114 68.3047 117.951 69.9315C116.788 71.5583 115.528 73.1365 114.123 74.6905C112.742 76.2445 111.458 77.847 110.295 79.4981C109.132 81.1735 108.235 82.8974 107.581 84.6699C106.927 86.4424 106.757 88.3363 107.048 90.3516C108.744 89.1133 110.658 87.6565 112.79 86.0054C114.922 84.33 116.982 82.5818 118.993 80.7122L124.202 75.9531C124.056 76.3416 123.887 76.7544 123.742 77.1672C123.596 77.6042 123.427 77.9927 123.281 78.3812C122.894 78.6968 122.361 79.1825 121.658 79.838C121.004 80.4936 120.446 80.9792 120.059 81.2949Z" fill="black"/>
<path d="M121.004 91.6142C119.453 89.4532 118.775 87.1951 118.92 84.8884C119.065 82.5575 119.72 80.2751 120.834 78.0413C121.949 75.8074 123.354 73.6221 125.001 71.4854C126.673 69.3487 128.199 67.382 129.58 65.5609C130.961 63.7398 132.003 62.113 132.706 60.6805C133.409 59.2479 133.36 58.0581 132.585 57.1355C134.596 58.2281 135.662 59.4664 135.783 60.899C135.904 62.3316 135.492 63.9098 134.572 65.6095C133.651 67.3091 132.342 69.1545 130.695 71.1212C129.023 73.088 127.448 75.1276 125.946 77.2157C124.444 79.3039 123.136 81.4648 122.07 83.6501C120.979 85.8597 120.567 88.0935 120.786 90.3274C122.482 89.089 124.347 87.6322 126.358 85.9811C128.369 84.3057 130.38 82.606 132.391 80.8093L134.135 79.1825V80.8093L133.336 81.392C131.107 83.4073 128.902 85.3012 126.794 87.0737C124.662 88.8462 122.845 90.3273 121.294 91.4928L121.004 91.6142ZM144.287 36.5939L144.626 41.5957L138.836 46.6947L138.496 41.5957L144.287 36.5939Z" fill="black"/>
<path d="M137.091 91.6142C134.475 91.5414 132.9 90.4245 132.391 88.3121C131.882 86.1753 132.076 83.6501 132.972 80.7122C133.869 77.7742 135.274 74.6662 137.212 71.4126C139.151 68.159 141.283 65.3181 143.633 62.89C145.983 60.4619 148.382 58.7137 150.805 57.6696C153.227 56.6256 155.335 56.8441 157.128 58.3009C158.679 60.0734 159.478 62.1616 159.551 64.5654C159.624 66.9692 159.236 69.373 158.388 71.7525C157.54 73.7678 156.329 75.9531 154.802 78.3084C153.252 80.6636 151.507 82.8489 149.593 84.8642C147.655 86.8795 145.62 88.5306 143.463 89.866C141.307 91.2015 139.175 91.7842 137.091 91.6142ZM147.873 62.1373C146.637 63.3028 145.256 65.0267 143.706 67.3091C142.155 69.5915 140.701 72.0196 139.369 74.5691C138.012 77.1186 136.873 79.6195 135.953 82.0476C135.032 84.4757 134.644 86.491 134.79 88.0207C134.935 89.5018 135.347 90.3759 136.001 90.6916C136.655 91.0072 137.479 90.9344 138.424 90.4488C139.393 89.9874 140.435 89.2347 141.549 88.1906C142.664 87.1466 143.754 86.0539 144.796 84.937C145.838 83.8201 146.758 82.7517 147.582 81.732C148.382 80.7364 148.963 79.9837 149.254 79.5224C147.873 79.7652 146.855 79.3281 146.25 78.2355C145.62 77.1429 145.305 75.7103 145.256 73.8892C145.208 72.0682 145.426 70.1014 145.886 67.9647C146.371 65.8766 147.025 63.9098 147.873 62.1373ZM155.044 59.0051C154.342 57.7668 153.542 57.4754 152.622 58.131C151.701 58.7866 150.805 59.952 149.957 61.6031C149.109 63.2785 148.382 65.1967 147.824 67.4063C147.243 69.6158 146.904 71.5826 146.831 73.3308C146.758 75.079 147.025 76.3659 147.631 77.2157C148.236 78.0655 149.375 77.9927 150.998 76.9729C151.992 75.3461 152.888 73.695 153.663 72.0439C154.439 70.3685 155.02 68.766 155.408 67.1634C155.796 65.5852 155.989 64.0798 155.989 62.6958C155.989 61.3118 155.674 60.0734 155.044 59.0051Z" fill="black"/>
<path d="M176.269 67.9405C175.033 68.7903 173.749 69.0088 172.392 68.5718C171.035 68.159 169.969 67.3577 169.194 66.1922C168.734 66.8235 167.74 68.159 166.238 70.1986C164.736 72.2624 163.113 74.472 161.368 76.8758C159.624 79.2796 158 81.4892 156.498 83.5045C154.996 85.5198 154.003 86.7581 153.542 87.2194H152.161C152.404 86.9766 152.937 86.321 153.785 85.1798C154.633 84.0629 155.626 82.7518 156.741 81.2221C157.855 79.7167 159.066 78.0898 160.326 76.3416C161.61 74.5934 162.798 72.9666 163.912 71.4126C165.027 69.8586 166.02 68.5232 166.868 67.4063C167.716 66.2894 168.249 65.5367 168.491 65.1482C167.256 62.7444 167.013 60.462 167.789 58.301C168.564 56.14 169.679 54.3432 171.156 52.9592C172.634 51.5752 174.088 50.7254 175.566 50.4583C177.044 50.1912 177.795 50.7011 177.892 52.0365C177.965 53.032 177.432 54.5617 176.269 56.577C175.106 58.5923 173.167 61.2632 170.478 64.5897C171.786 65.9737 173.022 66.5079 174.185 66.168C175.348 65.828 176.317 65.0753 177.141 63.9098C177.94 62.7444 178.522 61.3846 178.885 59.7821C179.224 58.2038 179.249 56.8684 178.934 55.7758C179.079 55.8486 179.249 56.0429 179.394 56.3585C180.945 58.0582 181.672 59.9521 181.599 62.0402C181.526 64.1284 181.017 66.2651 180.097 68.4261C179.176 70.5871 177.94 72.7481 176.39 74.8605C174.839 76.9972 173.361 79.0125 171.932 80.955C170.502 82.8974 169.315 84.6214 168.346 86.1754C167.377 87.7293 166.941 88.9676 167.013 89.8903L167.256 90.1331C168.952 88.7491 170.841 87.0495 172.925 85.0827C175.009 83.116 177.092 81.0764 179.176 78.9882L181.381 76.6573L181.139 78.4055L180.218 79.4496C177.989 81.6834 175.784 83.8201 173.676 85.8354C171.544 87.8507 169.727 89.5018 168.176 90.8373C167.861 91.1529 167.498 91.2743 167.086 91.1772C166.65 91.1044 166.287 90.983 165.996 90.8373C165.608 90.4488 165.366 89.9389 165.293 89.3319C165.051 87.705 165.317 85.9568 166.044 84.0386C166.771 82.1447 167.716 80.2751 168.879 78.4055C170.042 76.5359 171.302 74.7391 172.634 72.9423C173.967 71.1455 175.178 69.4944 176.269 67.9405ZM169.897 63.6428C172.901 60.2434 174.839 57.6697 175.687 55.9214C176.535 54.1732 176.85 53.0078 176.608 52.3764C176.366 51.7694 175.784 51.6723 174.815 52.0851C173.846 52.5221 172.901 53.2748 171.98 54.3432C171.06 55.4358 170.308 56.7713 169.775 58.3981C169.218 60.0492 169.267 61.7731 169.897 63.6428Z" fill="black"/>
<path d="M216.221 64.5654C214.549 61.4575 213.992 58.4466 214.574 55.4601C215.155 52.4978 216.439 49.7541 218.426 47.2289C220.413 44.7037 223.029 42.5184 226.252 40.6488C229.474 38.7792 232.915 37.4923 236.573 36.7881C240.232 36.084 244.035 36.0112 247.96 36.5939C251.885 37.1766 255.592 38.6335 259.057 40.9402C262.279 43.1254 263.781 45.5535 263.588 48.2001C263.394 50.8467 262.037 53.6876 259.542 56.7227C257.022 59.7578 253.678 62.8172 249.511 65.9251C245.319 69.0331 240.765 72.0196 235.798 74.9333C230.831 77.847 225.864 80.5422 220.825 83.0674C215.785 85.5926 211.303 87.8022 207.305 89.7446C209.631 88.8462 212.587 87.9721 216.197 87.1223C219.807 86.2967 223.829 85.7383 228.263 85.4712C232.696 85.2041 237.566 85.4712 242.848 86.2482C248.13 87.0252 253.654 88.6277 259.445 91.0801C263.442 92.7554 266.689 94.5279 269.209 96.3976C271.728 98.2672 273.618 100.137 274.902 102.006C276.186 103.876 277.034 105.721 277.422 107.518C277.81 109.315 277.882 110.99 277.616 112.544C277.107 116.405 275.048 120.144 271.438 123.762C271.317 120.411 270.541 116.988 269.112 113.516C267.828 110.553 265.671 107.348 262.643 103.925C259.614 100.501 255.205 97.3202 249.414 94.3337C244.011 91.6142 238.608 89.9389 233.205 89.3076C227.802 88.652 222.908 88.5063 218.523 88.8219C214.138 89.1376 210.479 89.6961 207.523 90.473C204.567 91.25 202.702 91.7599 201.926 92.027L201.345 92.4155L201.151 91.25C213.774 84.0143 224.58 77.1914 233.593 70.7327C237.445 68.0133 241.128 65.2453 244.593 62.4044C248.057 59.5636 250.94 56.8684 253.194 54.2703C255.447 51.6966 256.925 49.3656 257.627 47.3017C258.33 45.2379 257.846 43.4897 256.174 42.0814C253.218 39.8961 250.092 38.7063 246.797 38.5121C243.502 38.3178 240.304 38.8277 237.13 40.0661C233.981 41.3044 230.976 43.004 228.142 45.1893C225.307 47.3746 222.884 49.7055 220.897 52.1579C218.911 54.6103 217.457 56.9655 216.56 59.2236C215.712 61.506 215.591 63.2785 216.221 64.5654Z" fill="black"/>
<path d="M315.086 93.0225C318.309 93.0225 321.071 91.3471 323.396 87.9964C325.722 84.6456 327.927 80.5422 330.059 75.7103C332.191 70.8784 334.299 65.7794 336.431 60.4134C338.563 55.0716 341.107 50.3125 344.063 46.1848L321.458 63.3999V61.4574L348.885 40.3574C350.678 38.9491 352.543 37.7836 354.482 36.8852C356.42 35.9868 358.528 35.5255 360.854 35.5255C358.019 35.5255 355.548 36.9581 353.415 39.7747C351.283 42.6155 349.297 46.1605 347.431 50.4097C345.565 54.6588 343.676 59.2722 341.737 64.2497C339.799 69.2273 337.594 73.8407 335.075 78.0898C332.555 82.339 329.696 85.9082 326.474 88.7248C323.251 91.59 319.447 93.0225 315.086 93.0225Z" fill="black"/>
<path d="M277.994 88.3606C273.609 85.9083 270.629 82.9217 269.006 79.3524C267.407 75.8074 266.777 72.0682 267.164 68.1347C267.552 64.2012 268.836 60.292 271.017 56.4313C273.197 52.5707 275.935 49.1471 279.23 46.1848C282.525 43.2226 286.208 40.9645 290.327 39.4105C294.445 37.8565 298.685 37.4195 303.071 38.0508C307.456 38.7063 310.606 40.7702 312.544 44.2424C314.482 47.7145 315.379 51.818 315.258 56.5285C315.136 61.2389 314.119 66.1194 312.253 71.1455C310.388 76.1717 307.771 80.4451 304.428 83.9172C301.084 87.3894 297.159 89.7446 292.653 90.983C288.17 92.2213 283.276 91.3472 277.994 88.3606ZM299.994 39.022C297.547 38.6335 294.906 39.3376 292.071 41.1587C289.236 42.9555 286.595 45.3836 284.148 48.4187C281.701 51.4538 279.521 54.8288 277.583 58.5681C275.644 62.3073 274.36 66.0466 273.73 69.7858C273.076 73.5251 273.173 76.9729 274.021 80.1294C274.869 83.2859 276.831 85.714 279.908 87.3894C282.864 89.0648 285.99 89.1376 289.285 87.5836C292.556 86.0297 295.633 83.553 298.467 80.1294C301.302 76.7058 303.676 72.7723 305.615 68.329C307.553 63.8856 308.764 59.5636 309.273 55.363C309.782 51.1624 309.346 47.5688 307.916 44.5337C306.511 41.4986 303.87 39.6776 299.994 39.022Z" fill="black"/>
<path d="M363.484 88.3606C359.099 85.9083 356.119 82.9217 354.496 79.3524C352.896 75.8074 352.267 72.0682 352.654 68.1347C353.042 64.2012 354.326 60.292 356.507 56.4313C358.687 52.5707 361.425 49.1471 364.72 46.1848C368.015 43.2226 371.698 40.9645 375.817 39.4105C379.935 37.8565 384.175 37.4195 388.561 38.0508C392.946 38.7063 396.096 40.7702 398.034 44.2424C399.972 47.7145 400.869 51.818 400.748 56.5285C400.626 61.2389 399.609 66.1194 397.743 71.1455C395.878 76.1717 393.261 80.4451 389.917 83.9172C386.574 87.3894 382.649 89.7446 378.142 90.983C373.66 92.2213 368.766 91.3472 363.484 88.3606ZM385.484 39.022C383.037 38.6335 380.396 39.3376 377.561 41.1587C374.726 42.9555 372.085 45.3836 369.638 48.4187C367.191 51.4538 365.011 54.8288 363.072 58.5681C361.134 62.3073 359.85 66.0466 359.22 69.7858C358.566 73.5251 358.663 76.9729 359.511 80.1294C360.359 83.2859 362.321 85.714 365.398 87.3894C368.354 89.0648 371.48 89.1376 374.775 87.5836C378.046 86.0297 381.123 83.553 383.957 80.1294C386.792 76.7058 389.166 72.7723 391.105 68.329C393.043 63.8856 394.254 59.5636 394.763 55.363C395.272 51.1624 394.836 47.5688 393.406 44.5337C392.001 41.4986 389.36 39.6776 385.484 39.022Z" fill="black"/>
<path d="M550.086 16.8114C549.922 17.3968 549.98 18.0057 549.945 18.6145C549.782 21.8695 549.513 25.1128 549.128 28.3444C548.825 30.9086 548.451 33.4728 548.019 36.0253C547.4 39.7018 546.63 43.3549 545.707 46.9728C544.867 50.2513 543.898 53.4828 542.812 56.691C541.563 60.3441 540.162 63.9386 538.586 67.4629C535.982 73.3055 532.912 78.8906 529.398 84.2414C527.145 87.6837 524.705 90.9856 522.113 94.1586C519.743 97.0624 517.233 99.8373 514.594 102.495C513.543 103.549 512.481 104.591 511.395 105.598C508.196 108.572 504.881 111.382 501.39 114.005C497.537 116.908 493.556 119.59 489.412 122.049C486.084 124.027 482.675 125.854 479.196 127.552C479.114 127.587 478.986 127.575 478.974 127.716C478.916 127.716 478.858 127.716 478.799 127.716C478.659 127.353 478.321 127.154 478.064 126.908C475.32 124.273 472.845 121.393 470.545 118.36C467.673 114.59 465.128 110.609 462.852 106.453C460.12 101.453 457.82 96.2545 455.952 90.8685C454.901 87.8359 453.99 84.7566 453.22 81.6421C452.636 79.2769 452.146 76.8884 451.737 74.4764C451.714 74.3359 451.702 74.1837 451.69 74.0432H451.702C452.391 75.4716 452.905 76.9703 453.512 78.4222C454.959 81.888 456.395 85.3654 457.925 88.7961C459.221 91.6998 460.575 94.5801 461.999 97.4136C465.093 103.584 468.771 109.38 473.09 114.766C475.063 117.225 477.071 119.637 479.079 122.06C479.255 122.271 479.371 122.294 479.617 122.154C484.088 119.683 488.408 116.979 492.564 114.016C497.187 110.726 501.588 107.155 505.745 103.291C506.854 102.261 507.94 101.219 509.014 100.153C512.563 96.6408 515.867 92.9175 518.961 89.0068C521.494 85.8104 523.852 82.4851 526.059 79.0545C528.721 74.9096 531.114 70.6243 533.239 66.1867C534.757 63.0254 536.122 59.7938 537.337 56.492C538.492 53.354 539.508 50.181 540.372 46.9611C541.283 43.5539 542.03 40.0999 542.602 36.6224C543.571 30.7798 543.98 24.9021 543.91 18.9892C543.91 18.5677 543.769 18.3452 543.419 18.1345C540.267 16.3079 537.045 14.6219 533.717 13.1466C530.46 11.7065 527.121 10.4536 523.712 9.41156C520.548 8.45145 517.349 7.66698 514.092 7.06984C511.325 6.55466 508.535 6.15656 505.745 5.89897C501.145 5.48917 496.533 5.40721 491.91 5.65309C489.587 5.78189 487.275 5.95752 484.975 6.22681C483.037 6.44928 481.099 6.73029 479.173 7.05813C476.674 7.46793 474.188 7.9714 471.701 8.49829C471.141 8.61537 470.569 8.74417 470.008 8.88467C469.903 8.90809 469.856 8.9198 469.763 8.80271C471.094 8.1119 472.437 7.47964 473.814 6.90592C476.581 5.77018 479.418 4.88032 482.325 4.1778C484.228 3.72117 486.154 3.3582 488.081 3.05378C490.591 2.65568 493.113 2.4098 495.646 2.22246C496.778 2.1405 497.911 2.12879 499.043 2.08196C499.265 2.07025 499.51 2.1405 499.72 2C501.285 2 502.861 2 504.425 2C504.472 2.07025 504.542 2.07025 504.612 2.07025C506.457 2.11709 508.29 2.19905 510.134 2.32784C512.75 2.51518 515.365 2.79619 517.957 3.15915C521.074 3.59237 524.156 4.15439 527.226 4.8452C530.845 5.65309 534.418 6.63662 537.92 7.87773C540.886 8.93151 543.793 10.1141 546.443 11.8352C547.984 12.8422 549.502 13.896 550.086 15.8045C550.086 16.1791 550.086 16.4953 550.086 16.8114Z" fill="#B62814"/>
<path d="M453.722 21.6002C455.473 20.406 457.236 19.3053 459.069 18.2867C461.567 16.9051 464.147 15.6874 466.809 14.6336C469.518 13.5564 472.285 12.6666 475.11 11.9406C477.246 11.3903 479.395 10.9454 481.566 10.5824C483.936 10.1843 486.329 9.89161 488.723 9.69256C492.085 9.42326 495.447 9.3413 498.81 9.44668C503.176 9.57547 507.519 9.99698 511.839 10.6995C516.894 11.5308 521.856 12.7134 526.701 14.3877C529.923 15.5117 533.075 16.788 535.971 18.6145C536.718 19.0829 537.418 19.6215 538.096 20.2069C539.018 21.0031 539.368 21.9632 539.216 23.1926C539.018 24.8084 538.948 26.4359 538.796 28.0517C538.562 30.5808 538.236 33.1098 537.85 35.6272C537.418 38.4958 536.881 41.3527 536.251 44.1862C535.305 48.4598 534.126 52.6515 532.713 56.7964C531.021 61.7491 528.989 66.5614 526.619 71.2214C525.078 74.2422 523.385 77.1694 521.552 80.0146C518.867 84.1946 515.902 88.1521 512.644 91.8871C508.57 96.5237 504.145 100.751 499.335 104.579C494.829 108.174 490.077 111.37 485.057 114.215C482.932 115.421 480.784 116.545 478.601 117.634C478.286 117.787 478.087 117.775 477.819 117.529C475.565 115.421 473.686 113.009 471.923 110.504C468.467 105.61 465.525 100.423 462.887 95.0602C460.271 89.7444 458.006 84.2882 456.349 78.5861C455.263 74.8511 454.422 71.0692 454.364 67.1468C454.364 66.9829 454.364 66.8072 454.434 66.6199C454.586 67.0297 454.726 67.4278 454.878 67.8376C455.029 68.2591 455.181 68.6806 455.333 69.1138C456.395 72.123 457.504 75.1204 458.637 78.0944C460.073 81.8645 461.591 85.6113 463.237 89.2995C464.941 93.1165 466.798 96.8633 468.922 100.47C471.479 104.813 474.421 108.876 477.865 112.565C478.531 113.279 478.519 113.279 479.383 112.857C485.862 109.696 491.758 105.656 497.21 100.938C501.647 97.0975 505.698 92.8941 509.434 88.3628C513.625 83.2813 517.338 77.8485 520.595 72.123C523.385 67.217 525.802 62.1355 527.798 56.8666C529.339 52.8271 530.624 48.694 531.628 44.4789C532.188 42.102 532.678 39.7135 533.04 37.3015C533.496 34.2807 533.799 31.2364 533.881 28.1805C533.916 26.9628 533.951 25.7334 533.928 24.5157C533.916 24.2347 533.834 24.0825 533.589 23.9302C530.378 22.0452 527.051 20.4411 523.572 19.1063C519.369 17.5022 515.049 16.3196 510.625 15.5117C506.422 14.739 502.184 14.3409 497.923 14.177C494.42 14.0482 490.929 14.1535 487.439 14.3994C483.633 14.6687 479.85 15.1605 476.091 15.8162C470.639 16.7529 465.268 18.0642 459.968 19.6683C458.076 20.242 456.185 20.8509 454.329 21.53C454.154 21.5768 453.967 21.6939 453.722 21.6002Z" fill="#001D63"/>
<path d="M434.879 18.8253C435.276 18.9307 435.568 19.2234 435.918 19.4342C438.358 20.9212 440.985 22.0218 443.74 22.7126C445.246 23.099 446.495 23.8834 447.768 24.6679C449.029 25.4407 450.243 26.2954 451.55 26.9862C452.438 27.4546 453.442 27.7122 454.376 28.0868C456.255 28.8362 458.228 29.3514 460.026 30.3232C462.408 31.6111 464.112 33.5314 465.373 35.8848C466.155 37.3484 466.914 38.8119 467.673 40.2872C467.79 40.5214 467.953 40.6619 468.199 40.7673C469.483 41.2825 470.837 41.5283 472.18 41.8094C473.534 42.0904 474.923 42.2777 476.254 42.6992C476.663 42.828 477.13 42.8983 477.247 43.472C477.282 43.6242 477.538 43.7296 477.69 43.8701C478.519 44.6077 479.149 45.521 479.827 46.3874C480.235 46.9026 480.667 47.3944 481.193 47.7925C482.325 48.6589 483.598 48.6823 484.917 48.4013C485.034 48.3779 485.15 48.3545 485.244 48.3076C485.921 47.933 486.47 48.1906 487.053 48.5887C490.392 50.8367 492.949 53.7287 494.502 57.4755C495.284 59.3489 495.728 61.3042 495.261 63.3532C495.027 64.3953 494.49 65.2617 493.556 65.8472C493.334 65.9877 493.218 65.976 493.066 65.7184C492.015 63.8918 490.859 62.1355 489.342 60.6368C487.602 58.9157 485.559 57.7214 483.224 57.0423C483.142 57.0189 483.061 56.9837 482.955 57.054C485.512 59.2669 487.707 61.7726 489.458 64.6763C489.517 64.77 489.587 64.8754 489.517 65.0276C488.536 64.6763 487.602 64.2197 486.68 63.763C484.368 62.6273 482.255 61.1637 480.072 59.8172C478.753 58.9976 477.387 58.2834 475.857 57.9087C473.966 57.4521 472.086 57.616 470.23 58.1078C467.965 58.7049 465.84 59.665 463.774 60.7539C463.575 60.8593 463.377 60.953 463.132 61.07C464.895 57.3233 467.79 54.6537 470.954 52.1949C469.331 51.1763 467.708 50.3332 465.688 51.2348C465.794 50.7547 465.887 50.3684 465.945 49.9937C466.109 48.9633 465.84 48.4481 464.906 47.9915C463.564 47.3241 462.116 46.9494 460.703 46.4811C458.94 45.884 457.154 45.3337 455.391 44.7131C453.885 44.1862 452.694 43.1441 451.515 42.1021C450.628 41.3176 449.752 40.498 448.772 39.8189C446.974 38.5544 445.001 38.086 442.829 38.4256C442.14 38.5309 441.732 38.9173 441.568 39.6433C441.452 40.1467 441.463 40.6502 441.557 41.2005C440.88 40.978 440.331 40.6151 439.829 40.1936C438.475 39.093 437.435 37.7113 436.408 36.318C435.217 34.7139 434.108 33.0279 432.719 31.576C431.96 30.7798 431.119 30.1007 430.115 29.6441C429.672 29.445 429.357 29.0235 428.925 28.7894C427.944 28.2508 426.917 27.8175 425.912 27.3375C424.115 26.4828 422.34 25.5929 420.927 24.141C420.11 23.298 419.515 22.3262 419.27 21.0734C420.204 21.7291 421.091 22.3262 421.955 22.9585C424.045 24.4806 426.356 25.5227 428.796 26.2837C429.859 26.6116 430.944 26.8926 431.995 27.2672C433.186 27.6887 434.178 28.4615 435.101 29.3045C436.21 30.3115 437.097 31.5292 438.101 32.6415C438.661 33.2621 439.28 33.8007 440.051 34.1519C440.366 34.2924 440.669 34.3627 441.02 34.3275C442.899 34.1636 444.779 34.0231 446.67 34.1519C448.783 34.2924 450.85 34.632 452.683 35.7911C453.652 36.4 454.411 37.243 455.134 38.1211C455.73 38.8471 456.325 39.5964 457.178 40.0531C457.995 40.4863 458.882 40.5917 459.793 40.5917C460.05 40.5917 460.061 40.4629 460.073 40.2755C460.178 38.7417 459.676 37.4186 458.73 36.2478C457.458 34.6671 455.8 33.5782 454.084 32.5595C452.461 31.5994 450.78 30.7447 449.11 29.8783C448.737 29.6792 448.468 29.3865 448.165 29.1172C446.145 27.2321 444.09 25.4056 441.65 24.0591C440.658 23.5088 439.584 23.1341 438.591 22.6072C436.98 21.7056 435.813 20.3826 434.879 18.8253Z" fill="#001D63"/>
<path d="M425.329 51.8787C426.216 52.6281 427.127 53.3072 428.177 53.7872C429.683 54.478 431.224 54.8878 432.894 54.4663C433.956 54.197 434.68 53.5062 434.75 52.6281C434.809 51.9138 434.458 51.3401 434.003 50.8249C433.116 49.8414 431.983 49.2209 430.804 48.7057C428.329 47.6168 425.714 47.0313 423.064 46.6333C421.604 46.4108 420.46 45.6263 419.351 44.7482C417.156 43.0153 415.393 40.8726 413.771 38.6128C412.802 37.2546 411.961 35.8145 411.085 34.386C411.039 34.3158 411.015 34.2338 410.969 34.1167C411.226 34.0933 411.342 34.2572 411.471 34.3977C413.152 36.154 414.845 37.8869 416.724 39.4207C418.184 40.6033 419.713 41.6688 421.476 42.3596C422.772 42.8631 424.068 42.7226 425.375 42.5352C426.333 42.3947 427.243 42.1137 428.037 41.5517C429.286 40.6501 429.625 39.3622 429.03 37.9337C428.423 36.5053 427.395 35.4047 426.286 34.386C425.901 34.0348 425.504 33.7069 425.072 33.3323C425.971 33.1098 426.776 33.2269 427.559 33.6133C428.89 34.2689 429.905 35.311 430.898 36.3648C432.766 38.3553 434.47 40.4979 436.443 42.3947C437.576 43.4836 438.79 44.4555 440.121 45.2985C441.055 45.8839 441.965 45.8019 442.888 45.3687C443.635 45.0175 444.184 44.4086 444.791 43.8583C445.199 43.4836 445.584 42.9685 446.098 42.8865C446.635 42.7928 447.032 43.3665 447.476 43.6593C449.799 45.2165 452.216 46.563 454.819 47.5817C457.843 48.7525 460.948 49.3965 464.206 49.1272C464.287 49.1155 464.381 49.1272 464.509 49.1272C464.194 50.0053 463.61 50.5791 462.816 50.9654C461.836 51.4572 460.773 51.5977 459.699 51.6446C457.82 51.7382 455.963 51.4923 454.107 51.2816C451.877 51.0357 449.671 50.5674 447.406 50.6727C446.857 50.6961 446.32 50.7781 445.818 51.1411C446.764 51.8202 447.756 52.3471 448.795 52.792C451.165 53.8224 453.687 54.279 456.209 54.7356C457.434 54.9581 458.532 54.6068 459.629 54.197C462.174 53.2252 464.789 52.5695 467.521 52.6164C467.089 52.8388 466.611 53.0379 466.179 53.3306C465.046 54.0917 464.241 55.1571 463.435 56.2226C461.964 58.1545 460.33 59.8991 458.322 61.2808C456.465 62.5453 454.422 63.4468 452.391 64.3601C451.247 64.8753 450.068 65.3202 448.865 65.7066C447.137 66.2569 445.444 66.2218 443.775 65.4959C443.331 65.2968 442.876 65.1212 442.421 64.8402C442.794 64.7933 443.168 64.7348 443.541 64.688C445.911 64.407 448.246 64.0089 450.465 63.1073C451.247 62.7912 451.994 62.3931 452.566 61.7491C453.208 61.0232 453.208 60.2855 452.566 59.5596C451.959 58.8805 451.165 58.4824 450.336 58.1663C448.316 57.3818 446.203 57.0305 444.067 56.8315C443.331 56.7612 442.596 56.7261 441.86 56.6558C440.646 56.5388 439.467 56.8198 438.264 56.9486C436.431 57.1359 434.599 57.1827 432.754 56.9486C431.26 56.7612 429.824 56.3983 428.493 55.684C426.905 54.8527 425.831 53.6116 425.329 51.8787Z" fill="#001D63"/>
<path d="M456.104 24.5508C458.555 25.265 461.124 25.3821 463.61 25.8973C465.712 26.3422 467.475 27.314 468.596 29.2225C469.051 29.9836 469.378 30.8149 469.856 31.5525C470.65 32.7819 471.538 33.9294 472.833 34.667C473.219 34.8895 473.616 35.0534 474.059 35.0651C474.795 35.0885 475.262 34.667 475.309 33.9177C475.344 33.3088 475.157 32.7351 474.9 32.1965C474.176 30.6861 473.044 29.5035 471.841 28.3795C472.04 28.2507 472.18 28.3795 472.343 28.4732C474.34 29.5035 476.021 30.9554 477.632 32.4892C478.601 33.4142 479.547 34.3626 480.761 34.9715C481.94 35.5569 483.131 36.1306 484.345 36.6458C485.617 37.1727 486.563 38.0391 487.24 39.2217C487.474 39.6198 487.742 40.0062 487.999 40.3926C488.057 40.4862 488.116 40.615 488.268 40.5799C488.396 40.5448 488.419 40.416 488.443 40.2989C488.513 39.9359 488.489 39.5729 488.478 39.21C488.478 39.0929 488.408 38.9758 488.536 38.8587C489.61 40.0647 490.439 41.4112 490.999 42.9099C491.933 45.4273 491.852 47.9212 490.848 50.4034C490.731 50.7079 490.649 50.8132 490.334 50.5439C489.155 49.537 487.941 48.5652 486.727 47.5934C486.516 47.4294 486.423 47.2421 486.388 46.9728C486.283 46.1064 485.828 45.439 485.15 44.8535C484.8 46.3405 483.714 47.1133 482.489 47.7807C482.267 47.8978 482.197 47.8978 482.103 47.6285C481.753 46.4927 481.368 45.357 481.239 44.1627C481.216 43.952 481.169 43.7178 481.216 43.507C481.333 43.0153 481.076 42.8865 480.679 42.7577C478.974 42.2074 477.258 41.6454 475.682 40.7672C474.83 40.2989 474.071 39.7135 473.336 38.9641C473.265 40.053 473.744 40.8024 474.48 41.4463C473.429 41.3058 472.402 41.1185 471.386 40.8258C470.569 40.5916 469.798 40.2755 469.121 39.7603C468.082 38.9758 467.568 37.8752 467.206 36.6692C466.926 35.7442 466.903 34.7841 466.704 33.8357C466.027 30.6393 464.241 28.321 461.334 26.8457C459.851 26.0846 458.31 25.4641 456.769 24.8318C456.547 24.7498 456.325 24.6445 456.104 24.5508Z" fill="#001D63"/>
<path d="M503.608 71.5727C503.597 71.5493 503.585 71.5376 503.573 71.5259C502.651 70.7765 502.569 70.7882 501.857 71.76C501.74 71.924 501.67 72.2167 501.332 71.9825C501.121 71.8303 501.075 71.7483 501.227 71.5142C502.067 70.2262 502.896 68.9266 503.702 67.6269C503.83 67.4161 503.935 67.4279 504.099 67.5449C504.239 67.6503 504.437 67.6971 504.262 67.9664C504.087 68.224 503.97 68.5285 503.83 68.8212C503.713 69.0788 503.783 69.2544 504.017 69.4066C506.48 70.9873 508.955 72.5679 511.407 74.1603C511.664 74.3359 511.862 74.3008 512.049 74.0901C512.236 73.8793 512.411 73.6803 512.563 73.4461C512.715 73.2002 512.843 73.1651 513.1 73.329C513.415 73.528 513.193 73.6686 513.1 73.8091C512.294 75.0736 511.489 76.3264 510.683 77.5909C510.566 77.7783 510.473 77.8837 510.251 77.7197C510.064 77.5909 509.959 77.5207 510.111 77.2631C510.765 76.1625 510.753 76.1508 509.702 75.4717C508.01 74.3711 506.317 73.2939 504.624 72.1933C504.367 72.0293 504.215 72.0645 503.993 72.2752C502.476 73.7856 500.958 75.2726 499.429 76.7596C499.207 76.9704 499.183 77.0641 499.464 77.2514C501.799 78.7384 504.134 80.2371 506.457 81.7475C506.784 81.9583 507.017 81.9348 507.239 81.6421C507.391 81.4431 507.554 81.2557 507.683 81.0567C507.823 80.8342 507.951 80.7874 508.196 80.9513C508.477 81.1387 508.336 81.2557 508.22 81.4314C507.414 82.6842 506.609 83.9487 505.803 85.2133C505.686 85.4006 505.605 85.5411 505.348 85.3655C505.126 85.2133 505.103 85.1196 505.231 84.8854C505.85 83.7731 505.85 83.7614 504.764 83.0706C502.557 81.6538 500.339 80.2371 498.144 78.8086C497.759 78.5628 497.514 78.6096 497.269 78.9491C497.14 79.1248 497 79.2887 496.883 79.476C496.743 79.6868 496.638 79.7688 496.381 79.6048C496.113 79.4292 496.206 79.3121 496.323 79.1248C496.848 78.3052 497.374 77.4856 497.899 76.666C497.981 76.5372 498.039 76.3498 498.284 76.502C498.541 76.6543 498.681 76.3732 498.822 76.2327C500.468 74.6638 502.044 73.1182 503.608 71.5727Z" fill="#001D63"/>
<path d="M526.257 31.0374C525.102 30.9788 523.946 30.8852 522.813 30.6159C522.545 30.5573 522.44 30.6159 522.381 30.8852C522.148 31.8921 521.914 32.8873 521.646 33.8943C521.576 34.1753 521.669 34.2338 521.903 34.2924C524.144 34.831 526.374 35.393 528.604 35.9433C529.129 36.0721 529.211 36.037 529.421 35.5335C529.503 35.3461 529.561 35.1471 529.62 34.9598C529.678 34.7139 529.713 34.5382 530.063 34.6436C530.39 34.7373 530.32 34.9012 530.262 35.1237C529.9 36.5756 529.538 38.0274 529.188 39.4793C529.129 39.7135 529.071 39.7954 528.814 39.7369C528.604 39.6783 528.476 39.6315 528.546 39.3622C528.616 39.1163 528.627 38.847 528.662 38.5894C528.709 38.2148 528.569 38.004 528.184 37.9103C526.654 37.5474 525.125 37.161 523.584 36.7863C522.323 36.4819 521.05 36.1775 519.789 35.8496C519.439 35.7559 519.264 35.8496 519.147 36.1657C519.054 36.4233 518.937 36.6809 518.879 36.9502C518.82 37.2195 518.704 37.2664 518.447 37.1844C518.213 37.1141 518.167 37.0322 518.225 36.7863C518.622 35.2291 518.996 33.6484 519.381 32.0911C519.743 30.6276 520.035 29.1406 520.607 27.7355C520.794 27.2672 521.004 26.7988 521.366 26.4242C521.914 25.8856 522.568 26.0495 522.802 26.7871C522.953 27.2438 522.93 27.7121 522.872 28.1688C522.837 28.4615 522.883 28.6137 523.21 28.6722C525.16 29.0118 527.11 29.2694 529.083 28.883C530.297 28.6488 531.231 28.04 531.581 26.752C531.663 26.4476 531.85 26.5295 532.048 26.5647C532.317 26.6115 532.27 26.752 532.223 26.9394C532.025 27.7004 531.838 28.4615 531.663 29.2225C531.616 29.4333 531.499 29.5738 531.324 29.7026C529.83 30.8149 528.09 31.0959 526.257 31.0374ZM522.031 28.8713C521.949 28.5903 522.054 28.2507 521.728 28.1805C521.401 28.1102 521.307 28.4263 521.167 28.6254C521.12 28.6956 521.097 28.7776 521.062 28.8596C520.537 30.1826 520.303 31.5994 519.953 32.9693C519.743 33.8006 519.778 33.8006 520.642 33.9645C520.829 33.9997 520.875 33.9762 520.922 33.7889C521.19 32.6297 521.494 31.4823 521.763 30.3349C521.879 29.8431 521.949 29.3396 522.031 28.8713Z" fill="#001D63"/>
<path d="M520.607 44.1511C522.241 44.1628 523.56 44.5726 524.728 45.3805C526.538 46.645 527.016 48.4716 526.596 50.5323C526.187 52.5345 525.288 54.3142 523.817 55.7661C522.218 57.3584 520.233 57.6863 518.19 56.7145C517.268 56.2695 516.416 55.7309 515.703 54.9933C514.501 53.7288 514.022 52.2301 514.349 50.5089C514.723 48.495 515.633 46.7504 517.209 45.4156C518.237 44.5609 519.451 44.116 520.607 44.1511ZM520.21 46.0713C519.089 46.0713 518.248 46.2704 517.466 46.727C515.201 48.0735 514.699 51.0124 516.439 52.9443C517.373 53.9746 518.529 54.7006 519.836 55.1338C521.459 55.6724 522.895 55.2743 524.062 54.0215C524.751 53.2838 525.195 52.4174 525.44 51.4339C525.825 49.8298 525.323 48.3662 524.004 47.3944C522.813 46.5162 521.459 46.1182 520.21 46.0713Z" fill="#001D63"/>
<path d="M493.521 83.6091C493.194 84.218 492.926 84.78 492.272 85.0376C491.91 85.1898 491.63 85.4825 491.361 85.7635C490.673 86.4777 490.007 87.2037 489.33 87.9179C489.166 88.0818 489.178 88.1638 489.33 88.3277C490.054 89.0654 490.042 89.0654 490.731 88.3394C491.466 87.5549 492.202 86.7705 492.914 85.9743C493.148 85.7167 493.346 85.4708 493.346 85.0376C493.346 84.7215 493.778 84.4522 494.058 84.2063C494.128 84.1477 494.187 84.2297 494.245 84.2765C494.549 84.5575 494.84 84.8268 495.132 85.1078C495.167 85.143 495.214 85.2015 495.214 85.2483C495.226 85.342 494.467 86.1031 494.373 86.0797C494.012 85.986 493.778 86.2084 493.58 86.4192C492.634 87.391 491.723 88.3745 490.789 89.3581C490.591 89.5571 490.754 89.6625 490.871 89.7796C492.19 91.0207 493.509 92.2735 494.829 93.5146C495.237 93.901 495.658 94.2757 496.066 94.6738C496.23 94.8377 496.323 94.8377 496.475 94.6621C497.432 93.6083 498.413 92.5779 499.37 91.5242C499.791 91.0675 500.141 90.5641 500.269 89.9552C500.339 89.5805 500.526 89.3346 500.865 89.1707C501.063 89.0771 501.238 88.9483 501.46 88.8078C501.46 89.44 501.46 90.0255 501.46 90.6109C501.46 90.7397 501.367 90.8099 501.273 90.8919C498.868 93.0697 496.697 95.4817 494.49 97.8468C494.292 98.0576 494.163 98.1278 493.941 97.8936C493.813 97.7531 493.778 97.6595 493.918 97.4956C494.152 97.2263 494.373 96.9218 494.584 96.6408C494.759 96.4067 494.735 96.1959 494.514 95.9969C492.377 93.9947 490.241 91.9808 488.116 89.9669C487.917 89.7796 487.719 89.7445 487.509 89.9201C487.287 90.1074 487.065 90.2948 486.855 90.4938C486.68 90.6577 486.551 90.9387 486.236 90.6343C485.886 90.3065 486.259 90.1777 486.4 90.0255C487.742 88.5619 489.108 87.11 490.451 85.6464C490.848 85.2132 491.21 84.7332 491.56 84.2531C491.723 84.0189 491.91 83.9018 492.19 83.8667C492.599 83.7965 493.031 83.7028 493.521 83.6091Z" fill="#001D63"/>
<path d="M480.165 95.6222C479.827 96.2076 479.605 96.7813 479.021 97.1209C478.332 97.519 477.667 97.9756 477.282 98.725C477.223 98.8304 477.176 98.9357 477.141 99.0411C477.001 99.5212 477.165 99.7202 477.655 99.6148C478.461 99.4392 479.231 99.1231 480.013 98.8655C481.881 98.2332 483.738 97.601 485.687 97.2614C486.283 97.156 486.902 97.1443 487.509 97.2263C488.7 97.3668 489.283 98.2683 489.061 99.5797C488.793 101.114 488.046 102.413 487.147 103.643C486.586 104.427 485.909 105.106 485.174 105.715C484.999 105.856 484.929 106.031 484.87 106.23C484.753 106.617 484.462 106.898 484.24 107.214C484.146 107.343 484.053 107.307 483.936 107.272C483.714 107.19 483.493 107.132 483.282 107.038C483.002 106.921 482.57 106.968 482.489 106.652C482.442 106.453 482.734 106.183 482.827 105.926C482.944 105.61 483.189 105.563 483.469 105.504C484.38 105.305 485.104 104.778 485.722 104.099C486.645 103.081 487.439 101.98 487.695 100.575C487.871 99.6148 487.52 99.1114 486.551 98.9592C485.326 98.7601 484.158 99.0294 483.002 99.369C481.134 99.9193 479.266 100.516 477.41 101.102C477.106 101.195 476.791 101.254 476.464 101.254C475.857 101.254 475.53 100.879 475.635 100.271C475.694 99.8958 475.822 99.5329 476.021 99.2167C476.663 98.1864 477.328 97.1677 477.97 96.1491C478.11 95.9149 478.297 95.8212 478.566 95.7978C479.068 95.7627 479.582 95.6924 480.165 95.6222Z" fill="#001D63"/>
<path d="M509.702 61.2808C509.492 61.2808 509.411 61.3745 509.329 61.4799C509.165 61.7023 508.979 61.9131 508.862 62.159C508.687 62.5102 508.5 62.4283 508.255 62.2644C508.126 62.1824 508.115 62.1239 508.185 61.9951C508.967 60.6017 509.749 59.2084 510.52 57.8151C510.625 57.6277 510.73 57.6512 510.858 57.7448C510.987 57.8385 511.255 57.8619 511.092 58.1546C510.952 58.3888 510.858 58.6581 510.741 58.904C510.59 59.2435 510.648 59.4777 511.01 59.6767C512.656 60.5783 514.302 61.515 515.937 62.44C516.766 62.9083 517.606 63.365 518.435 63.8567C518.82 64.0909 519.101 64.0675 519.346 63.6694C519.463 63.4821 519.591 63.3064 519.696 63.1191C519.824 62.8966 519.953 62.8381 520.21 62.9786C520.502 63.1425 520.361 63.2713 520.268 63.4586C519.544 64.7466 518.82 66.0462 518.097 67.3342C518.003 67.4981 517.968 67.7323 517.665 67.5567C517.396 67.4044 517.396 67.2757 517.525 67.0181C518.073 65.9409 518.062 65.9292 517.011 65.3437C514.699 64.0441 512.388 62.7444 510.076 61.4447C509.948 61.3745 509.796 61.316 509.702 61.2808Z" fill="#001D63"/>
<path d="M492.587 73.528C492.564 74.9213 492.4 76.0922 491.665 77.0757C490.416 78.7618 487.917 78.6212 486.878 76.8064C485.617 74.5818 485.839 72.3571 487.112 70.2379C487.649 69.348 488.513 68.868 489.61 68.9616C490.801 69.067 491.501 69.8164 492.004 70.8116C492.447 71.7366 492.622 72.7201 492.587 73.528ZM491.28 73.7622C491.28 73.4577 491.291 73.1533 491.28 72.8489C491.221 71.9005 491.058 70.9755 490.509 70.1676C489.972 69.3949 489.073 69.1958 488.396 69.7227C488.022 70.0154 487.824 70.4486 487.707 70.9053C487.345 72.2283 487.322 73.5748 487.45 74.933C487.52 75.7058 487.672 76.4552 488.174 77.0874C489.003 78.1412 490.299 77.989 490.859 76.7713C491.291 75.7995 491.233 74.7691 491.28 73.7622Z" fill="#B62814"/>
<path d="M477.749 73.7388C477.714 74.734 477.573 75.741 477.095 76.6542C476.056 78.6096 473.534 78.8086 472.203 77.0406C471.701 76.3732 471.409 75.6239 471.304 74.8043C471.117 73.3758 471.304 71.9825 471.981 70.6945C472.53 69.6642 473.335 68.9265 474.573 68.9382C475.834 68.95 476.616 69.711 477.141 70.7882C477.597 71.7132 477.76 72.6967 477.749 73.7388ZM476.441 74.0315C476.441 73.6685 476.453 73.3407 476.441 73.0246C476.418 72.0879 476.278 71.1746 475.787 70.3433C475.495 69.8515 475.11 69.4651 474.491 69.43C473.732 69.3949 473.125 69.8984 472.88 70.7999C472.483 72.2167 472.472 73.6685 472.623 75.1204C472.693 75.7527 472.857 76.3498 473.195 76.8884C473.511 77.3685 473.896 77.7314 474.515 77.7431C475.344 77.7666 475.986 77.1811 476.196 76.221C476.383 75.4834 476.418 74.734 476.441 74.0315Z" fill="#B62814"/>
<path d="M465.28 77.1109C466.319 77.1109 467.3 77.1226 468.28 77.1109C468.806 77.0991 469.214 76.8416 469.541 76.4318C469.646 76.2913 469.74 76.1508 469.845 76.0102C469.938 75.8932 470.043 75.9283 470.16 75.9868C470.288 76.0571 470.242 76.1625 470.195 76.2444C469.891 76.8884 469.6 77.5324 469.296 78.1763C469.203 78.3871 469.028 78.4339 468.887 78.27C468.666 78.0241 468.397 78.0593 468.129 78.0593C466.716 78.0593 465.315 78.071 463.902 78.0827C463.75 78.0827 463.54 78.1763 463.47 78.0007C463.389 77.79 463.61 77.708 463.739 77.6026C464.93 76.6542 466.097 75.6824 467.16 74.5701C467.837 73.8559 468.409 73.0714 468.502 72.041C468.584 71.0692 468.164 70.3081 467.37 69.9803C466.564 69.6525 465.595 69.8983 465 70.6009C464.871 70.7531 464.766 70.9287 464.649 71.0926C464.556 71.2214 464.439 71.2214 464.311 71.1512C464.194 71.0926 464.194 70.9989 464.241 70.8936C464.708 69.91 465.42 69.1958 466.517 68.9968C467.58 68.7977 468.549 69.0319 469.273 69.8866C469.938 70.6711 469.915 71.5727 469.611 72.4742C469.226 73.5983 468.374 74.3945 467.556 75.1906C466.984 75.7409 466.342 76.221 465.7 76.7011C465.56 76.8181 465.385 76.8884 465.28 77.1109Z" fill="#B62814"/>
<path d="M482.769 73.1417C482.769 74.3594 482.769 75.5771 482.769 76.7948C482.769 77.4036 482.897 77.5441 483.504 77.5558C483.749 77.5558 483.995 77.5675 484.24 77.5558C484.415 77.5558 484.497 77.6144 484.497 77.8134C484.497 78.0008 484.438 78.0827 484.251 78.0827C482.792 78.0827 481.321 78.0827 479.862 78.0827C479.663 78.0827 479.628 77.9773 479.628 77.8017C479.628 77.6144 479.722 77.5441 479.897 77.5558C480.235 77.5558 480.562 77.5558 480.901 77.5558C481.403 77.5441 481.519 77.4387 481.531 76.8884C481.554 75.7176 481.554 74.535 481.554 73.3641C481.554 72.6499 481.566 71.9474 481.531 71.2332C481.496 70.6243 481.391 70.5658 480.796 70.7063C480.445 70.7882 480.095 70.8936 479.745 70.9873C479.581 71.0341 479.441 71.081 479.348 70.8702C479.266 70.6594 479.371 70.6009 479.535 70.5189C480.492 70.0272 481.438 69.5354 482.383 69.0437C482.734 68.8563 482.804 68.9968 482.804 69.3364C482.792 70.6009 482.804 71.8654 482.804 73.13C482.78 73.1417 482.769 73.1417 482.769 73.1417Z" fill="#B62814"/>
<path d="M434.89 18.8253C434.867 18.8136 434.844 18.8018 434.82 18.7901C434.832 18.7784 434.855 18.7667 434.867 18.755C434.867 18.7901 434.879 18.8018 434.89 18.8253Z" fill="#001D63"/>
<path d="M451.703 74.0554L451.69 74.0432L451.703 74.0676V74.0554Z" fill="#B62814"/>
</svg>
