<svg width="1024" height="416" viewBox="0 0 1024 416" fill="none" xmlns="http://www.w3.org/2000/svg">
<rect width="1024" height="416" fill="white"/>
<path d="M57.0711 323.98C56.5213 316.947 59.1604 309.64 64.9334 301.893C67.0226 299.091 69.9916 295.74 73.8952 291.894C75.2698 290.466 76.8092 289.092 78.5136 287.664C80.1631 286.235 81.9774 284.697 83.9017 282.939L91.764 276.895L94.1282 274.808C96.0525 273.214 97.7569 271.841 99.2414 270.577C100.726 269.369 101.99 268.215 103.035 267.171C108.643 262.281 111.447 258.051 111.447 254.535C111.447 253.326 111.777 252.722 112.492 252.722C112.822 252.722 113.152 252.777 113.426 252.832C113.701 252.941 113.976 252.941 114.361 252.941C115.076 253.106 115.681 253.656 116.175 254.535C117.055 255.414 117.77 256.458 118.265 257.666C118.815 259.26 119.034 261.073 119.034 263.16C119.364 269.314 116.505 275.247 110.347 281.016C109.138 282.06 107.818 283.214 106.389 284.422C104.959 285.631 103.31 286.895 101.386 288.103L79.8332 301.784C77.9088 303.157 76.2044 304.476 74.72 305.574C73.2355 306.728 71.861 307.827 70.6514 308.871C64.7684 314.42 61.9644 319.914 62.3493 325.518C62.6792 334.253 69.6067 338.649 83.132 338.649C108.368 338.649 131.405 332.056 152.298 318.925C162.964 312.277 171.046 304.64 176.489 296.07C182.812 286.62 185.671 276.456 185.176 265.578C184.846 259.974 181.328 251.843 174.675 241.129L165.218 226.405C163.129 223.054 161.26 220.087 159.72 217.45C158.126 214.813 156.641 212.395 155.267 210.088L153.178 206.681C149.164 199.155 145.975 192.232 143.721 185.914C140.917 178.057 139.432 170.585 139.267 163.608C138.718 152.4 140.312 142.346 143.996 133.501C147.679 124.655 152.573 117.128 158.731 110.92C164.888 104.712 171.761 99.7671 179.348 96.0861C186.991 92.4051 194.523 89.9877 201.945 88.834C209.368 87.6802 216.295 87.9 222.563 89.3834C228.886 90.8668 233.724 93.6138 237.133 97.6794C240.542 101.69 241.971 107.074 241.477 113.722C240.927 120.37 237.683 128.336 231.745 137.621C236.638 132.731 241.202 127.732 245.435 122.622C249.669 117.568 252.913 112.349 255.277 107.129C257.641 101.855 258.686 96.5256 258.411 91.0865C258.136 85.6474 256.102 79.9885 252.253 74C260.5 79.2743 266.053 84.4387 268.967 89.4932C271.881 94.6027 272.871 99.5474 271.991 104.492C271.111 109.382 268.692 114.271 264.788 119.051C260.83 123.886 256.156 128.666 250.713 133.501C245.27 138.335 239.497 143.17 233.339 148.06C227.182 152.95 221.409 157.894 215.966 162.894C210.522 167.893 205.849 173.003 201.89 178.277C197.932 183.551 195.513 188.881 194.633 194.32C194.798 186.628 197.107 179.376 201.451 172.618C205.849 165.861 211.072 159.158 217.23 152.51C221.629 144.434 223.993 137.237 224.323 130.809C224.653 124.435 223.718 118.996 221.409 114.546C219.154 110.096 215.801 106.58 211.402 104.052C207.004 101.525 202.22 100.097 197.052 99.8221C191.884 99.5474 186.606 100.481 181.273 102.569C175.94 104.877 171.211 108.283 166.978 113.118C162.744 117.952 159.39 124.216 156.861 131.907C154.332 139.599 153.287 148.829 153.837 159.488C154.167 163.498 154.662 167.454 155.267 171.3C155.872 175.146 156.861 178.991 158.291 182.837C159.335 185.969 160.655 189.21 162.249 192.562C163.844 195.913 165.603 199.319 167.527 202.836L169.617 206.242L188.31 234.591C194.798 245.25 198.097 254.37 198.317 261.897C199.031 274.698 194.908 286.51 185.946 297.388C178.744 307.003 168.132 315.409 154.112 322.606C148.339 325.573 142.236 328.32 135.859 330.737C129.481 333.21 122.828 335.297 116.011 337.055C103.75 340.407 93.1385 342.055 84.1766 342.055C66.6378 342.11 57.6209 336.066 57.0711 323.98Z" fill="black"/>
<path d="M224.323 242.503C222.728 246.349 221.409 250.249 220.364 254.205C219.319 258.161 219.209 261.787 220.089 265.083C224.103 262.281 228.831 258.93 234.274 254.974C239.717 251.018 245.215 246.953 250.823 242.777C256.431 238.547 261.765 234.371 266.878 230.141C271.936 225.911 276.169 222.01 279.523 218.329L279.798 217.779H280.348C280.513 217.944 280.788 218.054 281.118 218.054H281.668L283.262 218.329L282.217 219.373C278.864 223.054 274.63 227.064 269.462 231.35C264.294 235.635 258.796 239.975 253.023 244.371C247.25 248.766 241.587 252.941 236.089 257.007C230.59 261.018 225.807 264.479 221.739 267.281L221.189 267.83C217.67 266.457 215.471 263.929 214.591 260.358C213.711 256.787 213.436 253.216 213.821 249.7C214.536 243.547 216.295 236.899 219.209 229.756C222.068 222.449 225.807 215.856 230.48 209.813C235.099 203.77 240.542 198.825 246.755 194.979C252.968 191.133 259.675 189.375 266.878 189.705C271.276 189.87 274.41 190.913 276.334 192.836C277.709 194.265 278.534 195.474 278.699 196.517V196.792L278.424 197.067L278.974 197.616L278.204 198.385L224.323 242.503ZM247.964 206.791C244.281 210.472 240.762 214.648 237.463 219.263C234.109 223.933 231.25 228.658 228.776 233.602L226.687 237.558L275.84 197.342C275.125 196.462 273.86 195.913 272.046 195.638C270.232 195.364 268.032 195.528 265.613 196.188C263.139 196.792 260.39 198.001 257.311 199.759C254.232 201.462 251.098 203.825 247.964 206.791Z" fill="black"/>
<path d="M329.446 244.371C328.236 245.414 326.312 247.173 323.673 249.645C321.034 252.117 318.175 254.59 315.151 257.117C312.072 259.644 309.213 261.952 306.464 263.929C303.77 265.962 301.791 267.116 300.526 267.501C296.842 263.105 295.028 258.545 295.028 253.711C295.028 248.876 296.127 244.096 298.327 239.261C300.526 234.426 303.385 229.756 306.849 225.196C310.368 220.636 313.776 216.296 317.075 212.175C320.429 208.055 323.233 204.319 325.487 201.023C327.741 197.671 328.841 194.869 328.621 192.617C328.621 192.287 328.511 192.012 328.346 191.847C324.498 194.649 320.209 198.001 315.481 201.957C310.752 205.912 306.024 209.868 301.296 213.934C296.732 217.944 292.334 222.01 288.155 226.13C283.922 230.251 280.183 234.042 276.829 237.558C273.31 242.118 270.616 246.788 268.692 251.623C266.768 256.458 266.493 261.732 267.922 267.501C263.909 262.611 261.929 257.721 261.984 252.941C262.094 248.107 263.304 243.327 265.668 238.492C268.032 233.657 271.111 229.042 274.85 224.592C278.644 220.142 282.162 215.802 285.516 211.571C288.87 207.341 291.509 203.44 293.543 199.759C295.578 196.078 295.963 192.672 294.753 189.485C295.468 189.32 296.128 189.375 296.842 189.76C297.557 190.089 298.052 190.474 298.437 190.804C299.481 191.847 300.031 193.056 300.031 194.485C300.581 199.21 299.976 203.605 298.327 207.615C296.677 211.626 294.313 215.582 291.344 219.428C292.719 218.384 294.038 217.285 295.138 216.131C296.292 214.977 297.557 213.824 298.932 212.56C303.99 208 308.938 203.77 313.776 199.814C318.615 195.858 322.738 192.617 326.257 189.979C327.137 189.43 328.016 189.32 328.896 189.595C329.776 189.87 330.545 190.254 331.26 190.804C332.14 192.012 332.58 193.276 332.58 194.485C333.13 199.045 332.58 203.275 330.985 207.231C329.391 211.187 327.302 214.977 324.663 218.658C322.023 222.339 319.164 225.911 315.976 229.427C312.842 232.943 309.928 236.569 307.289 240.305C304.65 244.096 302.615 247.997 301.131 252.007C299.646 256.018 299.261 260.303 299.921 264.863C303.77 262.061 308.113 258.765 312.952 255.029C317.79 251.238 322.463 247.282 327.027 243.052L338.848 232.284C338.518 233.163 338.133 234.097 337.803 235.031C337.473 236.02 337.088 236.899 336.758 237.778C335.879 238.492 334.669 239.591 333.075 241.074C331.59 242.558 330.326 243.656 329.446 244.371Z" fill="black"/>
<path d="M331.59 267.72C328.071 262.831 326.532 257.721 326.862 252.502C327.192 247.228 328.676 242.063 331.205 237.009C333.734 231.954 336.923 227.009 340.662 222.175C344.456 217.34 347.919 212.89 351.053 208.769C354.187 204.649 356.551 200.968 358.146 197.726C359.74 194.485 359.63 191.793 357.871 189.705C362.434 192.177 364.853 194.979 365.128 198.221C365.403 201.462 364.469 205.033 362.379 208.879C360.29 212.725 357.321 216.9 353.582 221.351C349.789 225.801 346.215 230.416 342.806 235.141C339.397 239.866 336.428 244.755 334.009 249.7C331.535 254.699 330.6 259.754 331.095 264.809C334.944 262.007 339.177 258.71 343.741 254.974C348.304 251.183 352.868 247.337 357.431 243.272L361.39 239.591V243.272L359.575 244.59C354.517 249.15 349.514 253.436 344.73 257.447C339.892 261.457 335.769 264.809 332.25 267.446L331.59 267.72ZM384.427 143.225L385.196 154.543L372.056 166.08L371.286 154.543L384.427 143.225Z" fill="black"/>
<path d="M368.097 267.72C362.159 267.556 358.586 265.028 357.431 260.248C356.276 255.414 356.716 249.7 358.751 243.052C360.785 236.404 363.974 229.372 368.372 222.01C372.771 214.648 377.609 208.22 382.942 202.726C388.275 197.232 393.718 193.276 399.216 190.913C404.715 188.551 409.498 189.046 413.566 192.342C417.085 196.353 418.9 201.077 419.064 206.517C419.229 211.956 418.35 217.395 416.425 222.779C414.501 227.339 411.752 232.284 408.288 237.613C404.77 242.942 400.811 247.887 396.467 252.447C392.069 257.007 387.451 260.743 382.557 263.765C377.664 266.786 372.826 268.105 368.097 267.72ZM392.564 201.023C389.76 203.66 386.626 207.56 383.107 212.725C379.588 217.889 376.289 223.383 373.266 229.152C370.187 234.921 367.602 240.58 365.513 246.074C363.424 251.568 362.544 256.128 362.874 259.589C363.204 262.941 364.139 264.918 365.623 265.633C367.108 266.347 368.977 266.182 371.121 265.083C373.32 264.039 375.685 262.336 378.214 259.974C380.743 257.611 383.217 255.139 385.581 252.612C387.945 250.084 390.035 247.667 391.904 245.36C393.718 243.107 395.038 241.404 395.698 240.36C392.564 240.909 390.255 239.92 388.88 237.448C387.451 234.976 386.736 231.734 386.626 227.614C386.516 223.493 387.011 219.043 388.055 214.208C389.155 209.483 390.639 205.033 392.564 201.023ZM408.838 193.935C407.244 191.133 405.429 190.474 403.34 191.957C401.251 193.441 399.216 196.078 397.292 199.814C395.368 203.605 393.718 207.945 392.454 212.945C391.134 217.944 390.365 222.394 390.2 226.35C390.035 230.306 390.639 233.218 392.014 235.141C393.388 237.064 395.973 236.899 399.656 234.591C401.91 230.91 403.945 227.174 405.704 223.438C407.464 219.647 408.783 216.021 409.663 212.395C410.542 208.824 410.982 205.418 410.982 202.286C410.982 199.155 410.268 196.353 408.838 193.935Z" fill="black"/>
<path d="M457.001 214.153C454.197 216.076 451.283 216.571 448.204 215.582C445.125 214.648 442.706 212.835 440.947 210.198C439.902 211.626 437.648 214.648 434.239 219.263C430.83 223.933 427.147 228.932 423.188 234.371C419.229 239.811 415.546 244.81 412.137 249.37C408.728 253.93 406.474 256.732 405.429 257.776H402.295C402.845 257.227 404.055 255.743 405.979 253.161C407.903 250.634 410.158 247.667 412.687 244.206C415.216 240.799 417.965 237.118 420.824 233.163C423.738 229.207 426.432 225.526 428.961 222.01C431.49 218.494 433.744 215.472 435.669 212.945C437.593 210.417 438.803 208.714 439.352 207.835C436.548 202.396 435.999 197.232 437.758 192.342C439.517 187.452 442.046 183.387 445.4 180.255C448.754 177.123 452.053 175.2 455.407 174.596C458.761 173.992 460.465 175.146 460.685 178.167C460.85 180.42 459.64 183.881 457.001 188.441C454.362 193.001 449.964 199.045 443.861 206.572C446.83 209.703 449.634 210.912 452.273 210.143C454.912 209.374 457.111 207.67 458.981 205.033C460.795 202.396 462.114 199.319 462.939 195.693C463.709 192.122 463.764 189.1 463.049 186.628C463.379 186.793 463.764 187.232 464.094 187.947C467.613 191.793 469.262 196.078 469.097 200.803C468.932 205.528 467.777 210.362 465.688 215.252C463.599 220.142 460.795 225.032 457.276 229.811C453.757 234.646 450.404 239.206 447.16 243.601C443.916 247.997 441.222 251.897 439.022 255.414C436.823 258.93 435.834 261.732 435.999 263.82L436.548 264.369C440.397 261.237 444.686 257.392 449.414 252.941C454.142 248.491 458.871 243.876 463.599 239.151L468.602 233.877L468.052 237.833L465.963 240.195C460.905 245.25 455.902 250.084 451.118 254.645C446.28 259.205 442.156 262.941 438.638 265.962C437.923 266.677 437.098 266.951 436.163 266.731C435.174 266.567 434.349 266.292 433.689 265.962C432.81 265.083 432.26 263.929 432.095 262.556C431.545 258.875 432.15 254.919 433.799 250.579C435.449 246.294 437.593 242.063 440.232 237.833C442.871 233.602 445.73 229.537 448.754 225.471C451.778 221.405 454.527 217.67 457.001 214.153ZM442.541 204.429C449.359 196.737 453.757 190.913 455.682 186.958C457.606 183.002 458.321 180.365 457.771 178.936C457.221 177.563 455.902 177.343 453.702 178.277C451.503 179.266 449.359 180.969 447.27 183.387C445.18 185.859 443.476 188.881 442.266 192.562C441.002 196.298 441.112 200.198 442.541 204.429Z" fill="black"/>
<path d="M547.665 206.517C543.871 199.484 542.606 192.672 543.926 185.914C545.245 179.211 548.159 173.003 552.668 167.289C557.176 161.575 563.114 156.631 570.427 152.4C577.739 148.17 585.546 145.258 593.848 143.665C602.15 142.071 610.782 141.907 619.689 143.225C628.596 144.544 637.008 147.84 644.871 153.059C652.183 158.004 655.592 163.498 655.152 169.487C654.712 175.475 651.633 181.903 645.97 188.771C640.252 195.638 632.665 202.561 623.208 209.593C613.696 216.626 603.36 223.383 592.089 229.976C580.818 236.569 569.547 242.667 558.111 248.381C546.675 254.095 536.503 259.095 527.432 263.49C532.71 261.457 539.417 259.479 547.61 257.556C555.802 255.688 564.928 254.425 574.99 253.82C585.051 253.216 596.103 253.82 608.088 255.578C620.074 257.337 632.61 260.963 645.75 266.512C654.822 270.303 662.189 274.313 667.907 278.544C673.626 282.774 677.914 287.005 680.828 291.235C683.742 295.465 685.666 299.641 686.546 303.706C687.426 307.772 687.591 311.563 686.986 315.079C685.831 323.815 681.158 332.276 672.966 340.462C672.691 332.88 670.931 325.133 667.688 317.277C664.774 310.574 659.88 303.322 653.008 295.575C646.135 287.829 636.129 280.631 622.988 273.874C610.727 267.72 598.467 263.929 586.206 262.501C573.945 261.018 562.839 260.688 552.888 261.402C542.936 262.116 534.634 263.38 527.926 265.138C521.219 266.896 516.985 268.05 515.226 268.654L513.906 269.533L513.466 266.896C542.111 250.524 566.633 235.086 587.086 220.471C595.828 214.318 604.185 208.055 612.047 201.627C619.909 195.199 626.452 189.1 631.565 183.222C636.678 177.398 640.032 172.124 641.627 167.454C643.221 162.784 642.122 158.828 638.328 155.642C631.62 150.697 624.528 148.005 617.05 147.565C609.573 147.126 602.315 148.28 595.113 151.082C587.965 153.884 581.148 157.729 574.715 162.674C568.282 167.619 562.784 172.893 558.276 178.442C553.767 183.991 550.469 189.32 548.434 194.43C546.51 199.594 546.235 203.605 547.665 206.517Z" fill="black"/>
<path d="M772.016 270.907C779.329 270.907 785.596 267.116 790.874 259.534C796.153 251.952 801.156 242.667 805.994 231.734C810.833 220.801 815.616 209.264 820.454 197.122C825.293 185.035 831.065 174.267 837.773 164.927L786.476 203.879V199.484L848.714 151.741C852.783 148.554 857.016 145.917 861.415 143.884C865.813 141.852 870.597 140.808 875.875 140.808C869.442 140.808 863.834 144.049 858.996 150.422C854.157 156.85 849.649 164.872 845.416 174.486C841.182 184.101 836.893 194.54 832.495 205.802C828.097 217.065 823.093 227.504 817.375 237.118C811.657 246.733 805.17 254.809 797.857 261.182C790.545 267.665 781.913 270.907 772.016 270.907Z" fill="black"/>
<path d="M687.845 260.358C677.893 254.809 671.131 248.052 667.447 239.975C663.818 231.954 662.389 223.493 663.268 214.593C664.148 205.692 667.062 196.847 672.01 188.112C676.958 179.376 683.171 171.629 690.649 164.927C698.126 158.224 706.483 153.114 715.83 149.598C725.177 146.082 734.798 145.093 744.75 146.522C754.701 148.005 761.849 152.675 766.247 160.531C770.646 168.388 772.68 177.673 772.405 188.331C772.13 198.99 769.821 210.033 765.587 221.405C761.354 232.778 755.416 242.448 747.829 250.304C740.241 258.161 731.334 263.49 721.108 266.292C710.937 269.094 699.83 267.116 687.845 260.358ZM737.767 148.719C732.214 147.84 726.221 149.433 719.788 153.554C713.356 157.62 707.363 163.114 701.81 169.981C696.257 176.849 691.308 184.485 686.91 192.946C682.511 201.407 679.598 209.868 678.168 218.329C676.684 226.79 676.903 234.591 678.828 241.733C680.752 248.876 685.206 254.37 692.188 258.161C698.896 261.952 705.988 262.116 713.466 258.6C720.888 255.084 727.871 249.48 734.303 241.733C740.736 233.987 746.124 225.086 750.523 215.032C754.921 204.978 757.67 195.199 758.825 185.694C759.979 176.189 758.99 168.058 755.746 161.191C752.557 154.323 746.564 150.203 737.767 148.719Z" fill="black"/>
<path d="M881.845 260.358C871.893 254.809 865.131 248.052 861.447 239.975C857.818 231.954 856.389 223.493 857.268 214.593C858.148 205.692 861.062 196.847 866.01 188.112C870.958 179.376 877.171 171.629 884.649 164.927C892.126 158.224 900.483 153.114 909.83 149.598C919.177 146.082 928.798 145.093 938.75 146.522C948.701 148.005 955.849 152.675 960.247 160.531C964.646 168.388 966.68 177.673 966.405 188.331C966.13 198.99 963.821 210.033 959.587 221.405C955.354 232.778 949.416 242.448 941.829 250.304C934.241 258.161 925.334 263.49 915.108 266.292C904.937 269.094 893.83 267.116 881.845 260.358ZM931.767 148.719C926.214 147.84 920.221 149.433 913.788 153.554C907.356 157.62 901.363 163.114 895.81 169.981C890.257 176.849 885.308 184.485 880.91 192.946C876.511 201.407 873.598 209.868 872.168 218.329C870.684 226.79 870.903 234.591 872.828 241.733C874.752 248.876 879.206 254.37 886.188 258.161C892.896 261.952 899.988 262.116 907.466 258.6C914.888 255.084 921.871 249.48 928.303 241.733C934.736 233.987 940.124 225.086 944.523 215.032C948.921 204.978 951.67 195.199 952.825 185.694C953.979 176.189 952.99 168.058 949.746 161.191C946.557 154.323 940.564 150.203 931.767 148.719Z" fill="black"/>
</svg>
